<?xml version="1.0" standalone="no"?>
<!DOCTYPE svg PUBLIC "-//W3C//DTD SVG 20010904//EN"
 "http://www.w3.org/TR/2001/REC-SVG-20010904/DTD/svg10.dtd">
<svg version="1.0" xmlns="http://www.w3.org/2000/svg"
 width="949.000000pt" height="949.000000pt" viewBox="0 0 949.000000 949.000000"
 preserveAspectRatio="xMidYMid meet">
<metadata>
Created by potrace 1.14, written by Peter Selinger 2001-2017
</metadata>
<g transform="translate(0.000000,949.000000) scale(0.100000,-0.100000)"
fill="#000000" stroke="none">
<path d="M4430 9469 c-654 -52 -1258 -219 -1812 -500 -577 -293 -1083 -699
-1514 -1215 -533 -639 -913 -1490 -1024 -2296 -43 -315 -45 -350 -45 -713 0
-363 2 -398 45 -713 64 -463 198 -889 430 -1369 141 -291 270 -501 468 -763
161 -212 228 -288 446 -505 273 -273 518 -469 842 -673 149 -94 514 -280 698
-356 262 -107 644 -224 833 -255 32 -5 125 -21 206 -35 196 -34 491 -56 757
-56 815 1 1518 177 2245 563 593 314 1150 797 1560 1352 252 342 483 763 612
1115 201 548 296 1035 310 1580 29 1155 -356 2258 -1101 3155 -125 150 -434
460 -586 586 -197 164 -393 304 -620 441 -572 345 -1238 565 -1947 644 -166
18 -644 26 -803 13z m377 -3654 c174 -28 290 -86 369 -183 54 -66 75 -105 106
-198 19 -59 23 -90 23 -209 0 -155 -3 -170 -71 -310 -64 -131 -152 -242 -353
-442 -295 -294 -440 -461 -477 -550 -13 -29 -13 -37 -2 -44 7 -5 203 -9 436
-9 466 0 470 0 513 -61 21 -30 24 -47 27 -141 l4 -108 -700 0 -700 0 -7 30
c-4 17 -4 70 0 118 14 191 74 351 189 506 32 45 188 212 346 371 356 362 399
423 408 581 9 158 -47 255 -174 304 -165 63 -366 21 -544 -113 -41 -32 -80
-57 -87 -57 -24 0 -173 208 -173 242 0 25 47 69 132 125 211 137 476 190 735
148z m-1109 -102 c-8 -111 -66 -195 -167 -245 -43 -21 -62 -23 -276 -28 l-230
-5 -3 -937 -2 -938 -78 0 c-48 0 -95 6 -126 17 -63 23 -138 90 -168 151 l-23
47 -5 830 -5 830 -340 5 -340 5 3 50 c1 28 7 66 14 85 28 88 121 172 209 189
24 5 381 9 793 10 l749 1 -5 -67z m2352 -693 l5 -745 26 -76 c57 -166 169
-270 324 -298 221 -41 417 40 509 209 14 26 35 83 46 126 19 73 20 112 20 764
0 534 3 690 13 702 13 16 272 68 341 68 l36 0 0 -729 c0 -469 -4 -757 -11
-807 -48 -344 -250 -574 -574 -656 -78 -19 -116 -22 -280 -22 -166 0 -200 3
-274 23 -291 78 -485 285 -558 596 -14 61 -17 168 -20 794 -3 514 -1 727 7
735 15 15 284 65 340 63 l45 -2 5 -745z"/>
</g>
</svg>
